<svg xmlns="http://www.w3.org/2000/svg" viewBox="0 0 240 280" width="240" height="280">
  <!-- Upper part: inverted-L / backwards Γ shape -->
  <path d="
    M24,0
    H240
    V120
    L240,120
    Q240,160 200,160
    L120,160
    Q80,160 80,120
    L80,40
    Q80,0 40,0
    L24,0
    Q0,0 0,24
    L0,120
    Q0,160 40,160
    L80,160
  " fill="#E8333A"/>

  <!-- Lower part: curved J-tail / comma swirl -->
  <path d="
    M240,120
    L240,170
    Q240,240 170,264
    Q120,280 75,264
    Q30,248 20,205
    Q10,162 55,140
    Q100,118 125,155
    Q148,188 118,215
    Q95,235 70,225
    Q50,216 55,195
    Q60,178 78,182
  " fill="#E8333A"/>
</svg>